<?xml version="1.0" encoding="UTF-8"?>
<svg width="752pt" height="752pt" version="1.1" viewBox="0 0 752 752" xmlns="http://www.w3.org/2000/svg">
 <g fill="#007335">
  <path d="m376 172.36c112.24 0 203.64 91.402 203.64 203.64 0 112.23-91.402 203.64-203.64 203.64s-203.64-91.402-203.64-203.64 91.398-203.64 203.64-203.64m0-9.4727c-117.45 0-213.11 95.188-213.11 213.11s95.664 213.11 213.11 213.11c117.45 0 213.11-95.191 213.11-213.11-0.003907-117.92-95.668-213.11-213.12-213.11z"/>
  <path d="m410.57 376.48c0 18.941-15.629 34.57-34.57 34.57s-34.57-15.629-34.57-34.57c0-18.941 15.629-34.57 34.57-34.57 18.941-0.003906 34.57 15.152 34.57 34.57z"/>
  <path d="m275.6 376.48c0-33.625 16.574-62.984 42.148-80.98l-4.2617-5.6836c-26.992 19.418-44.516 51.148-44.516 87.141 0 35.52 17.051 66.773 43.57 86.191l4.2617-5.6836c-25.102-18.945-41.203-47.836-41.203-80.984z"/>
  <path d="m483.5 376.48c0-35.52-17.523-67.25-44.516-86.664l-4.2617 5.6797c25.102 17.996 41.676 47.832 41.676 80.98 0 32.676-16.102 61.566-40.254 80.035l4.2617 5.6836c26.047-19.414 43.094-50.672 43.094-85.715z"/>
  <path d="m510.97 376.48c0 44.043-21.312 83.352-54.461 107.98l4.2617 5.6836c34.57-26.047 57.305-67.25 57.305-113.66 0-47.359-23.207-89.035-58.723-114.61l-4.2656 5.207c34.098 24.625 55.883 64.406 55.883 109.4z"/>
  <path d="m241.03 376.48c0-44.988 22.258-84.77 55.883-109.4l-4.2617-5.6836c-35.52 26.047-58.727 67.723-58.727 115.08 0 46.883 22.73 88.086 57.777 114.13l4.2617-5.6836c-33.621-24.629-54.934-63.934-54.934-108.45z"/>
  <path d="m310.17 376.48c0-22.258 10.891-41.676 27.941-53.516l-4.2617-5.6836c-18.469 13.262-30.781 34.57-30.781 58.723 0 23.68 11.84 44.988 29.363 58.25l4.2617-5.6836c-16.102-11.836-26.523-30.781-26.523-52.09z"/>
  <path d="m448.93 376.48c0-24.152-12.312-45.465-30.309-58.723l-4.2617 5.6836c16.574 11.84 27.469 31.258 27.469 53.043 0 21.312-10.418 40.254-26.047 52.094l4.2617 5.6836c17.047-13.738 28.887-34.105 28.887-57.781z"/>
 </g>
</svg>
